<svg xmlns="http://www.w3.org/2000/svg" xmlns:xlink="http://www.w3.org/1999/xlink" width="375" viewBox="0 0 375 375" height="375" version="1.0"><defs><clipPath id="b"><path d="M 131 137 L 162 137 L 162 173 L 131 173 Z M 131 137"/></clipPath><clipPath id="c"><path d="M 68.222656 105.421875 L 104.296875 72.632812 L 178.957031 154.769531 L 142.882812 187.558594 Z M 68.222656 105.421875"/></clipPath><clipPath id="d"><path d="M 68.222656 105.421875 L 104.296875 72.632812 L 178.957031 154.769531 L 142.882812 187.558594 Z M 68.222656 105.421875"/></clipPath><clipPath id="e"><path d="M 86 89 L 150 89 L 150 158 L 86 158 Z M 86 89"/></clipPath><clipPath id="f"><path d="M 68.222656 105.421875 L 104.296875 72.632812 L 178.957031 154.769531 L 142.882812 187.558594 Z M 68.222656 105.421875"/></clipPath><clipPath id="g"><path d="M 68.222656 105.421875 L 104.296875 72.632812 L 178.957031 154.769531 L 142.882812 187.558594 Z M 68.222656 105.421875"/></clipPath><clipPath id="h"><path d="M 68 88 L 149 88 L 149 174 L 68 174 Z M 68 88"/></clipPath><clipPath id="i"><path d="M 68.222656 105.421875 L 104.296875 72.632812 L 178.957031 154.769531 L 142.882812 187.558594 Z M 68.222656 105.421875"/></clipPath><clipPath id="j"><path d="M 68.222656 105.421875 L 104.296875 72.632812 L 178.957031 154.769531 L 142.882812 187.558594 Z M 68.222656 105.421875"/></clipPath><clipPath id="m"><path d="M 18 1 L 80 1 L 80 70 L 18 70 Z M 18 1"/></clipPath><clipPath id="n"><path d="M 0.222656 17.421875 L 36.296875 -15.367188 L 110.957031 66.769531 L 74.882812 99.558594 Z M 0.222656 17.421875"/></clipPath><clipPath id="o"><path d="M 0.222656 17.421875 L 36.296875 -15.367188 L 110.957031 66.769531 L 74.882812 99.558594 Z M 0.222656 17.421875"/></clipPath><clipPath id="l"><path d="M0 0H81V86H0z"/></clipPath><clipPath id="p"><path d="M 216 137 L 249 137 L 249 169 L 216 169 Z M 216 137"/></clipPath><clipPath id="q"><path d="M 276.035156 76.371094 L 308.914062 109.253906 L 234.136719 184.027344 L 201.257812 151.148438 Z M 276.035156 76.371094"/></clipPath><clipPath id="r"><path d="M 276.035156 76.371094 L 308.914062 109.253906 L 234.136719 184.027344 L 201.257812 151.148438 Z M 276.035156 76.371094"/></clipPath><clipPath id="s"><path d="M 230 92 L 293 92 L 293 156 L 230 156 Z M 230 92"/></clipPath><clipPath id="t"><path d="M 276.035156 76.371094 L 308.914062 109.253906 L 234.136719 184.027344 L 201.257812 151.148438 Z M 276.035156 76.371094"/></clipPath><clipPath id="u"><path d="M 276.035156 76.371094 L 308.914062 109.253906 L 234.136719 184.027344 L 201.257812 151.148438 Z M 276.035156 76.371094"/></clipPath><clipPath id="v"><path d="M 214 76 L 293 76 L 293 156 L 214 156 Z M 214 76"/></clipPath><clipPath id="w"><path d="M 276.035156 76.371094 L 308.914062 109.253906 L 234.136719 184.027344 L 201.257812 151.148438 Z M 276.035156 76.371094"/></clipPath><clipPath id="x"><path d="M 276.035156 76.371094 L 308.914062 109.253906 L 234.136719 184.027344 L 201.257812 151.148438 Z M 276.035156 76.371094"/></clipPath><clipPath id="A"><path d="M 16 16 L 78.800781 16 L 78.800781 79 L 16 79 Z M 16 16"/></clipPath><clipPath id="B"><path d="M 62.035156 0.371094 L 94.914062 33.253906 L 20.136719 108.027344 L -12.742188 75.148438 Z M 62.035156 0.371094"/></clipPath><clipPath id="C"><path d="M 62.035156 0.371094 L 94.914062 33.253906 L 20.136719 108.027344 L -12.742188 75.148438 Z M 62.035156 0.371094"/></clipPath><clipPath id="z"><path d="M0 0H79V80H0z"/></clipPath><clipPath id="D"><path d="M 129 210 L 165 210 L 165 240 L 129 240 Z M 129 210"/></clipPath><clipPath id="E"><path d="M 96.402344 301.214844 L 64.660156 264.214844 L 147.769531 192.917969 L 179.511719 229.921875 Z M 96.402344 301.214844"/></clipPath><clipPath id="F"><path d="M 96.402344 301.214844 L 64.660156 264.214844 L 147.769531 192.917969 L 179.511719 229.921875 Z M 96.402344 301.214844"/></clipPath><clipPath id="G"><path d="M 80 221 L 150 221 L 150 283 L 80 283 Z M 80 221"/></clipPath><clipPath id="H"><path d="M 96.402344 301.214844 L 64.660156 264.214844 L 147.769531 192.917969 L 179.511719 229.921875 Z M 96.402344 301.214844"/></clipPath><clipPath id="I"><path d="M 96.402344 301.214844 L 64.660156 264.214844 L 147.769531 192.917969 L 179.511719 229.921875 Z M 96.402344 301.214844"/></clipPath><clipPath id="J"><path d="M 80 223 L 166 223 L 166 302 L 80 302 Z M 80 223"/></clipPath><clipPath id="K"><path d="M 96.402344 301.214844 L 64.660156 264.214844 L 147.769531 192.917969 L 179.511719 229.921875 Z M 96.402344 301.214844"/></clipPath><clipPath id="L"><path d="M 96.402344 301.214844 L 64.660156 264.214844 L 147.769531 192.917969 L 179.511719 229.921875 Z M 96.402344 301.214844"/></clipPath><clipPath id="O"><path d="M 0.398438 0.441406 L 70 0.441406 L 70 60 L 0.398438 60 Z M 0.398438 0.441406"/></clipPath><clipPath id="P"><path d="M 16.402344 78.214844 L -15.339844 41.214844 L 67.769531 -30.082031 L 99.511719 6.921875 Z M 16.402344 78.214844"/></clipPath><clipPath id="Q"><path d="M 16.402344 78.214844 L -15.339844 41.214844 L 67.769531 -30.082031 L 99.511719 6.921875 Z M 16.402344 78.214844"/></clipPath><clipPath id="N"><path d="M0 0H86V79H0z"/></clipPath><clipPath id="R"><path d="M 210 211 L 245 211 L 245 241 L 210 241 Z M 210 211"/></clipPath><clipPath id="S"><path d="M 310.148438 262.125 L 279.984375 299.460938 L 195.972656 231.589844 L 226.140625 194.253906 Z M 310.148438 262.125"/></clipPath><clipPath id="T"><path d="M 310.148438 262.125 L 279.984375 299.460938 L 195.972656 231.589844 L 226.140625 194.253906 Z M 310.148438 262.125"/></clipPath><clipPath id="U"><path d="M 225 222 L 295 222 L 295 282 L 225 282 Z M 225 222"/></clipPath><clipPath id="V"><path d="M 310.148438 262.125 L 279.984375 299.460938 L 195.972656 231.589844 L 226.140625 194.253906 Z M 310.148438 262.125"/></clipPath><clipPath id="W"><path d="M 310.148438 262.125 L 279.984375 299.460938 L 195.972656 231.589844 L 226.140625 194.253906 Z M 310.148438 262.125"/></clipPath><clipPath id="X"><path d="M 225 205 L 311 205 L 311 282 L 225 282 Z M 225 205"/></clipPath><clipPath id="Y"><path d="M 310.148438 262.125 L 279.984375 299.460938 L 195.972656 231.589844 L 226.140625 194.253906 Z M 310.148438 262.125"/></clipPath><clipPath id="Z"><path d="M 310.148438 262.125 L 279.984375 299.460938 L 195.972656 231.589844 L 226.140625 194.253906 Z M 310.148438 262.125"/></clipPath><clipPath id="ac"><path d="M 0.359375 17 L 70 17 L 70 76 L 0.359375 76 Z M 0.359375 17"/></clipPath><clipPath id="ad"><path d="M 85.148438 57.125 L 54.984375 94.460938 L -29.027344 26.589844 L 1.140625 -10.746094 Z M 85.148438 57.125"/></clipPath><clipPath id="ae"><path d="M 85.148438 57.125 L 54.984375 94.460938 L -29.027344 26.589844 L 1.140625 -10.746094 Z M 85.148438 57.125"/></clipPath><clipPath id="ab"><path d="M0 0H86V77H0z"/></clipPath><mask id="k"><g filter="url(#a)"><path fill-opacity=".078" d="M-37.5 -37.5H412.5V412.5H-37.5z"/></g></mask><mask id="y"><g filter="url(#a)"><path fill-opacity=".078" d="M-37.5 -37.5H412.5V412.5H-37.5z"/></g></mask><mask id="M"><g filter="url(#a)"><path fill-opacity=".078" d="M-37.5 -37.5H412.5V412.5H-37.5z"/></g></mask><mask id="aa"><g filter="url(#a)"><path fill-opacity=".078" d="M-37.5 -37.5H412.5V412.5H-37.5z"/></g></mask><filter x="0%" y="0%" width="100%" xmlns:xlink="http://www.w3.org/1999/xlink" xlink:type="simple" xlink:actuate="onLoad" height="100%" id="a" xlink:show="other"><feColorMatrix values="0 0 0 0 1 0 0 0 0 1 0 0 0 0 1 0 0 0 1 0" color-interpolation-filters="sRGB"/></filter><g id="af"><path d="M 11.546875 -6.597656 C 13.5625 -6.597656 15.394531 -6.964844 17.226562 -7.699219 C 30.972656 -13.195312 48.566406 -28.40625 60.480469 -51.5 L 62.128906 -54.980469 C 62.3125 -55.164062 62.3125 -55.347656 62.3125 -55.898438 C 62.3125 -56.082031 62.128906 -56.449219 61.945312 -56.632812 C 61.761719 -56.816406 61.398438 -57 60.664062 -57 C 59.382812 -57 58.648438 -56.449219 58.28125 -55.164062 C 49.484375 -36.289062 31.339844 -15.027344 13.746094 -10.082031 C 13.378906 -9.898438 13.011719 -9.898438 12.460938 -9.898438 C 9.347656 -9.898438 7.332031 -13.929688 6.78125 -16.679688 C 5.863281 -20.160156 5.679688 -23.640625 6.230469 -27.308594 C 8.0625 -38.121094 12.28125 -48.019531 18.695312 -57.363281 L 23.277344 -63.414062 C 26.023438 -67.078125 33.722656 -73.859375 37.753906 -75.691406 C 38.671875 -76.242188 38.488281 -77.160156 37.570312 -77.707031 C 37.019531 -78.074219 36.289062 -78.441406 35.1875 -78.625 C 34.089844 -78.625 32.988281 -78.441406 31.890625 -78.074219 C 31.339844 -77.890625 30.605469 -77.707031 30.058594 -77.707031 C 29.507812 -77.707031 28.773438 -77.707031 28.222656 -77.707031 L 25.839844 -77.707031 C 24.558594 -77.707031 23.640625 -78.257812 23.09375 -79.542969 C 21.992188 -81.742188 21.625 -84.121094 21.992188 -86.503906 C 22.542969 -97.683594 35.738281 -113.8125 47.285156 -113.8125 C 48.203125 -113.8125 48.75 -113.8125 49.300781 -113.628906 C 50.21875 -113.445312 51.132812 -112.898438 52.050781 -111.613281 C 53.332031 -109.597656 53.882812 -107.398438 53.148438 -105.015625 C 52.964844 -104.464844 52.78125 -104.101562 52.78125 -103.734375 C 52.601562 -103.183594 52.417969 -102.816406 52.234375 -102.265625 C 52.050781 -101.71875 51.867188 -101.351562 51.867188 -100.984375 C 51.5 -100.25 51.867188 -99.703125 52.964844 -99.519531 L 53.699219 -99.519531 C 54.617188 -99.519531 55.347656 -99.882812 55.898438 -100.617188 C 59.5625 -105.566406 58.28125 -111.980469 52.964844 -115.097656 C 52.78125 -115.28125 52.417969 -115.28125 52.234375 -115.464844 C 52.050781 -115.464844 51.683594 -115.644531 51.5 -115.828125 C 48.382812 -117.113281 45.269531 -117.480469 41.785156 -117.664062 C 30.242188 -117.664062 17.960938 -105.382812 14.660156 -94.386719 C 13.746094 -91.269531 13.378906 -88.15625 13.929688 -85.40625 C 14.660156 -81.007812 16.859375 -77.707031 20.527344 -75.691406 C 20.710938 -75.507812 21.078125 -75.324219 21.441406 -75.324219 C 21.625 -75.140625 21.992188 -74.960938 22.359375 -74.777344 C 23.277344 -74.226562 23.277344 -73.675781 22.359375 -72.761719 C 22.175781 -72.578125 21.808594 -72.394531 21.625 -72.394531 C 21.441406 -72.210938 21.078125 -72.027344 20.894531 -71.84375 C 8.0625 -60.847656 -2.199219 -41.785156 -2.75 -24.558594 C -2.75 -23.640625 -2.75 -22.542969 -2.75 -21.625 C -2.75 -20.527344 -2.566406 -19.425781 -2.382812 -18.511719 C -1.464844 -11.730469 4.765625 -6.597656 11.546875 -6.597656 Z M 11.546875 -6.597656"/></g></defs><path fill="#FFF" d="M-37.5 -37.5H412.5V412.5H-37.5z"/><path fill="#FFF" d="M-37.5 -37.5H412.5V412.5H-37.5z"/><path fill="#FFF" d="M-37.5 -37.5H412.5V412.5H-37.5z"/><g clip-path="url(#b)"><g clip-path="url(#c)"><g clip-path="url(#d)"><path fill="#7BC142" d="M 131.058594 137.886719 L 159.800781 172.058594 L 161.917969 170.136719 Z M 131.058594 137.886719"/></g></g></g><g clip-path="url(#e)"><g clip-path="url(#f)"><g clip-path="url(#g)"><path fill="#7BC142" d="M 137.832031 109.523438 C 154.808594 128.203125 147.824219 156.753906 147.824219 156.753906 C 147.824219 156.753906 118.734375 160.992188 101.757812 142.3125 C 84.777344 123.636719 86.320312 89.09375 86.320312 89.09375 C 86.320312 89.09375 120.851562 90.84375 137.832031 109.523438 Z M 137.832031 109.523438"/></g></g></g><g clip-path="url(#h)"><g clip-path="url(#i)"><g clip-path="url(#j)"><g mask="url(#k)"><g><g clip-path="url(#l)" transform="translate(68 88)"><g clip-path="url(#m)"><g clip-path="url(#n)"><g clip-path="url(#o)"><path fill="#04724D" d="M 18.320312 1.09375 C 18.320312 1.09375 16.777344 35.636719 33.757812 54.3125 C 50.734375 72.992188 79.824219 68.753906 79.824219 68.753906 Z M 18.320312 1.09375"/></g></g></g></g></g></g></g></g></g><g clip-path="url(#p)"><g clip-path="url(#q)"><g clip-path="url(#r)"><path fill="#7BC142" d="M 248.011719 137.660156 L 216.792969 166.5625 L 218.722656 168.492188 Z M 248.011719 137.660156"/></g></g></g><g clip-path="url(#s)"><g clip-path="url(#t)"><g clip-path="url(#u)"><path fill="#7BC142" d="M 275.328125 142.835938 C 258.324219 159.839844 230.816406 154.472656 230.816406 154.472656 C 230.816406 154.472656 225.445312 126.960938 242.449219 109.957031 C 259.453125 92.953125 292.410156 92.875 292.410156 92.875 C 292.410156 92.875 292.332031 125.832031 275.328125 142.835938 Z M 275.328125 142.835938"/></g></g></g><g clip-path="url(#v)"><g clip-path="url(#w)"><g clip-path="url(#x)"><g mask="url(#y)"><g><g clip-path="url(#z)" transform="translate(214 76)"><g clip-path="url(#A)"><g clip-path="url(#B)"><g clip-path="url(#C)"><path fill="#04724D" d="M 78.410156 16.875 C 78.410156 16.875 45.453125 16.953125 28.449219 33.957031 C 11.445312 50.960938 16.816406 78.472656 16.816406 78.472656 Z M 78.410156 16.875"/></g></g></g></g></g></g></g></g></g><g clip-path="url(#D)"><g clip-path="url(#E)"><g clip-path="url(#F)"><path fill="#7BC142" d="M 129.976562 239.921875 L 164.503906 212.5625 L 162.640625 210.394531 Z M 129.976562 239.921875"/></g></g></g><g clip-path="url(#G)"><g clip-path="url(#H)"><g clip-path="url(#I)"><path fill="#7BC142" d="M 101.988281 232.191406 C 120.886719 215.980469 149.0625 223.925781 149.0625 223.925781 C 149.0625 223.925781 152.628906 252.980469 133.730469 269.195312 C 114.832031 285.40625 80.601562 282.65625 80.601562 282.65625 C 80.601562 282.65625 83.089844 248.40625 101.988281 232.191406 Z M 101.988281 232.191406"/></g></g></g><g clip-path="url(#J)"><g clip-path="url(#K)"><g clip-path="url(#L)"><g mask="url(#M)"><g><g clip-path="url(#N)" transform="translate(80 223)"><g clip-path="url(#O)"><g clip-path="url(#P)"><g clip-path="url(#Q)"><path fill="#04724D" d="M 0.601562 59.65625 C 0.601562 59.65625 34.832031 62.40625 53.730469 46.195312 C 72.628906 29.980469 69.0625 0.925781 69.0625 0.925781 Z M 0.601562 59.65625"/></g></g></g></g></g></g></g></g></g><g clip-path="url(#R)"><g clip-path="url(#S)"><g clip-path="url(#T)"><path fill="#7BC142" d="M 244.722656 240.484375 L 212.019531 211.890625 L 210.25 214.082031 Z M 244.722656 240.484375"/></g></g></g><g clip-path="url(#U)"><g clip-path="url(#V)"><g clip-path="url(#W)"><path fill="#7BC142" d="M 242.25 268.976562 C 223.152344 253.546875 225.800781 224.832031 225.800781 224.832031 C 225.800781 224.832031 253.316406 216.210938 272.414062 231.640625 C 291.515625 247.070312 294.988281 280.726562 294.988281 280.726562 C 294.988281 280.726562 261.351562 284.40625 242.25 268.976562 Z M 242.25 268.976562"/></g></g></g><g clip-path="url(#X)"><g clip-path="url(#Y)"><g clip-path="url(#Z)"><g mask="url(#aa)"><g><g clip-path="url(#ab)" transform="translate(225 205)"><g clip-path="url(#ac)"><g clip-path="url(#ad)"><g clip-path="url(#ae)"><path fill="#04724D" d="M 69.988281 75.726562 C 69.988281 75.726562 66.515625 42.070312 47.414062 26.640625 C 28.316406 11.210938 0.800781 19.832031 0.800781 19.832031 Z M 69.988281 75.726562"/></g></g></g></g></g></g></g></g></g><path fill="#04724D" d="M 185.996094 81.917969 C 175.847656 81.917969 167.621094 90.148438 167.621094 100.292969 C 167.621094 110.441406 175.847656 118.667969 185.996094 118.667969 C 196.144531 118.667969 204.371094 110.441406 204.371094 100.292969 C 204.371094 90.148438 196.144531 81.917969 185.996094 81.917969 Z M 185.996094 81.917969"/><path fill="#04724D" d="M 280.066406 176.933594 C 269.917969 176.933594 261.691406 185.160156 261.691406 195.308594 C 261.691406 205.453125 269.917969 213.683594 280.066406 213.683594 C 290.214844 213.683594 298.441406 205.453125 298.441406 195.308594 C 298.441406 185.160156 290.214844 176.933594 280.066406 176.933594 Z M 280.066406 176.933594"/><path fill="#04724D" d="M 91.921875 176.933594 C 81.773438 176.933594 73.546875 185.160156 73.546875 195.308594 C 73.546875 205.453125 81.773438 213.683594 91.921875 213.683594 C 102.070312 213.683594 110.296875 205.453125 110.296875 195.308594 C 110.296875 185.160156 102.070312 176.933594 91.921875 176.933594 Z M 91.921875 176.933594"/><path fill="#04724D" d="M 186.765625 265.699219 C 176.617188 265.699219 168.390625 273.925781 168.390625 284.074219 C 168.390625 294.222656 176.617188 302.449219 186.765625 302.449219 C 196.914062 302.449219 205.140625 294.222656 205.140625 284.074219 C 205.140625 273.925781 196.914062 265.699219 186.765625 265.699219 Z M 186.765625 265.699219"/><path fill="#FFF" d="M 117.21875 175.695312 C 107.070312 175.695312 98.84375 183.921875 98.84375 194.070312 C 98.84375 204.21875 107.070312 212.445312 117.21875 212.445312 C 127.367188 212.445312 135.59375 204.21875 135.59375 194.070312 C 135.59375 183.921875 127.367188 175.695312 117.21875 175.695312 Z M 117.21875 175.695312"/><path fill="#FFF" d="M 186.765625 103.699219 C 176.617188 103.699219 168.390625 111.925781 168.390625 122.074219 C 168.390625 132.21875 176.617188 140.449219 186.765625 140.449219 C 196.914062 140.449219 205.140625 132.21875 205.140625 122.074219 C 205.140625 111.925781 196.914062 103.699219 186.765625 103.699219 Z M 186.765625 103.699219"/><path fill="#FFF" d="M 186.765625 239.167969 C 176.617188 239.167969 168.390625 247.394531 168.390625 257.542969 C 168.390625 267.691406 176.617188 275.917969 186.765625 275.917969 C 196.914062 275.917969 205.140625 267.691406 205.140625 257.542969 C 205.140625 247.394531 196.914062 239.167969 186.765625 239.167969 Z M 186.765625 239.167969"/><path fill="#FFF" d="M 253 176.933594 C 242.851562 176.933594 234.625 185.160156 234.625 195.308594 C 234.625 205.453125 242.851562 213.683594 253 213.683594 C 263.148438 213.683594 271.375 205.453125 271.375 195.308594 C 271.375 185.160156 263.148438 176.933594 253 176.933594 Z M 253 176.933594"/><path fill="#FFF" d="M 250.566406 159.367188 L 151.398438 253.140625 L 118.417969 218.265625 L 217.585938 124.492188 Z M 250.566406 159.367188"/><path fill="#FFF" d="M 226.292969 253.101562 L 123.648438 155.339844 L 151.582031 126.011719 L 254.222656 223.777344 Z M 226.292969 253.101562"/><g fill="#7BC142"><use x="159.466" y="250.581" xmlns:xlink="http://www.w3.org/1999/xlink" xlink:href="#af" xlink:type="simple" xlink:actuate="onLoad" xlink:show="embed"/></g></svg>