<svg xmlns="http://www.w3.org/2000/svg" width="375" viewBox="0 0 375 375" height="375" version="1.0"><path fill="#F4F4F4" d="M 187.5 0 C 83.945312 0 0 83.945312 0 187.5 C 0 243.699219 24.734375 294.117188 63.898438 328.480469 L 311.101562 328.480469 C 350.265625 294.117188 375 243.699219 375 187.5 C 375 83.945312 291.050781 0 187.5 0"/><path fill="#B6B6B6" d="M 63.898438 328.480469 C 96.898438 357.4375 140.148438 375 187.5 375 C 234.851562 375 278.101562 357.4375 311.101562 328.480469 C 309.046875 276.246094 275 232.308594 228.132812 215.910156 C 246.445312 203.003906 258.429688 181.632812 258.429688 157.425781 C 258.429688 118.011719 226.671875 86.058594 187.5 86.058594 C 148.328125 86.058594 116.570312 118.011719 116.570312 157.425781 C 116.570312 181.632812 128.554688 203.003906 146.867188 215.910156 C 100 232.308594 65.949219 276.246094 63.898438 328.480469"/></svg>